<?xml version="1.0" encoding="UTF-8"?>
<svg width="1200pt" height="1200pt" version="1.1" viewBox="0 0 1200 1200" xmlns="http://www.w3.org/2000/svg">
 <path d="m784.55 1017.9c-31.641 78.047-71.016 131.44-112.5 158.86-18.984 12.656-38.672 19.688-58.359 21.797-20.391 2.8125-40.078 0-59.766-8.4375-30.234-11.953-59.062-36.562-85.781-73.125-4.2188 0.70312-9.1406 1.4062-13.359 1.4062-15.469 0-30.234-5.625-42.188-17.578-11.25-11.25-17.578-26.719-17.578-41.484 0-15.469 6.3281-30.234 17.578-42.188 0.70312 0 1.4062-0.70312 1.4062-1.4062-7.7344-18.281-14.062-37.969-20.391-58.359-21.797 4.9219-42.891 8.4375-63.281 11.25-71.719 9.8438-130.03 6.3281-172.92-9.1406-35.859-12.656-61.875-33.047-77.344-59.766v-1.4062c-15.469-26.016-19.688-58.359-13.359-94.922 8.4375-45 34.453-97.734 78.75-154.64 12.656-16.172 26.719-33.047 41.484-49.219-14.766-16.172-28.828-32.344-41.484-48.516-44.297-56.953-70.312-109.69-78.75-154.64-6.3281-37.266-2.1094-69.609 13.359-96.328 0.70312-0.70312 0.70312-0.70312 0.70312-1.4062 15.469-26.016 41.484-46.406 76.641-58.359 42.891-15.469 101.25-19.688 172.92-9.8438 20.391 2.8125 41.484 7.0312 63.281 11.953v-0.70312c6.3281-21.094 13.359-40.781 21.094-59.766 28.125-68.203 61.172-117.42 97.031-146.9 21.094-17.578 42.891-28.828 65.391-33.047 23.203-4.2188 46.406-2.1094 68.906 7.0312 21.797 9.1406 42.188 23.906 62.578 45.703 6.3281-2.8125 13.359-3.5156 19.688-3.5156 15.469 0 30.234 5.625 42.188 16.875 11.25 11.953 17.578 26.719 17.578 42.188 0 14.766-5.625 29.531-16.875 40.781 1.4062 2.8125 2.8125 4.9219 3.5156 7.7344 3.5156 8.4375 7.0312 15.469 9.8438 23.203 8.4375 18.984 15.469 39.375 21.797 60.469 21.797-4.9219 42.891-9.1406 63.281-11.953 71.719-9.8438 129.32-5.625 172.92 9.8438 35.156 12.656 61.172 33.047 76.641 59.766s20.391 59.062 13.359 96.328c-8.4375 45-33.75 97.734-78.047 154.64-12.656 16.172-26.719 32.344-41.484 48.516 14.766 16.172 28.828 33.047 41.484 49.219 26.016 33.047 45 64.688 58.359 94.219 18.984 40.781 26.016 77.344 21.797 109.69-4.2188 33.75-19.688 61.875-46.406 82.266-5.625 4.2188-11.953 8.4375-18.281 11.953 0 15.469-5.625 30.234-17.578 42.188-11.25 11.25-26.719 16.875-41.484 16.875-15.469 0-30.234-5.625-42.188-16.875v-0.70312 0.70312c-4.2188-4.9219-7.7344-9.8438-10.547-14.766-11.25 0-22.5 0-35.156-0.70312-16.875-0.70312-34.453-2.1094-53.438-4.9219-20.391-2.8125-41.484-6.3281-63.281-11.25-6.3281 21.094-13.359 41.484-21.797 60.469zm243.24-84.375c0-0.70312-0.70312-1.4062-1.4062-2.1094h-0.70312c-3.5156-3.5156-7.7344-5.625-11.953-6.3281h-7.0312l-0.70312 0.70312h-2.1094l-0.70312 0.70312h-1.4062v0.70312h-1.4062v0.70312h-1.4062v0.70312h-0.70312v0.70312h-0.70312l-0.70312 0.70312h-0.70312v0.70312h-0.70312v0.70312l-3.5156 3.5156v0.70312c-2.1094 3.5156-2.8125 7.0312-2.8125 11.25 0 5.625 2.1094 11.25 6.3281 15.469s9.8438 6.3281 15.469 6.3281 10.547-2.1094 14.766-6.3281c4.9219-4.2188 7.0312-9.8438 7.0312-15.469 0-4.9219-1.4062-9.1406-4.9219-13.359zm-75.938 3.5156c1.4062-7.7344 4.2188-14.766 8.4375-21.094v-0.70312h0.70312v-0.70312c2.1094-3.5156 4.9219-6.3281 7.7344-9.8438l1.4062-0.70312v-0.70312c0.70312-0.70312 0.70312-0.70312 1.4062-0.70312l1.4062-1.4062v-0.70312h0.70312l1.4062-1.4062 1.4062-0.70312h0.70312v-0.70312l0.70312-0.70312h0.70312c0.70312-0.70312 1.4062-0.70312 2.1094-1.4062h0.70312l0.70312-0.70312h0.70312v-0.70312h0.70312l0.70312-0.70312h0.70312l0.70312-0.70312h1.4062l0.70312-0.70312h0.70312l0.70312-0.70312h1.4062l0.70312-0.70312h1.4062l0.70312-0.70312h1.4062l0.70312-0.70312h2.8125l0.70312-0.70312h2.8125l0.70312-0.70312h13.359c13.359 1.4062 26.016 7.0312 36.562 16.875v0.70312h0.70312c1.4062 1.4062 2.8125 3.5156 4.2188 4.9219l0.70312 0.70312c2.1094-2.1094 4.9219-3.5156 7.0312-5.625 18.984-14.062 29.531-33.75 32.344-56.953 3.5156-25.312-2.8125-55.547-18.281-90-12.656-26.719-30.234-56.25-54.141-87.188-11.953-14.766-24.609-29.531-37.969-44.297-40.781 40.078-87.891 79.453-138.47 116.02-3.5156 34.453-8.4375 68.906-14.766 101.25-4.9219 26.719-10.547 52.734-16.875 77.344 19.688 4.2188 38.672 7.7344 57.656 10.547 17.578 2.1094 34.453 3.5156 49.922 4.2188 9.8438 0.70312 18.984 0.70312 27.422 0.70312zm-482.26 137.76h0.70312c0-0.70312 0-0.70312 0.70312-0.70312v-0.70312h0.70312v-0.70312h0.70312v-0.70312c0.70312-0.70312 1.4062-1.4062 1.4062-2.1094v-0.70312c0.70312 0 0.70312-0.70312 0.70312-1.4062h0.70312v-2.1094h0.70312v-3.5156h0.70312v-5.625l-0.70312-0.70312c-0.70312-4.2188-2.8125-8.4375-5.625-11.953h-0.70312v-0.70312h-0.70312v-0.70312h-0.70312c-3.5156-3.5156-8.4375-4.9219-13.359-4.9219-5.625 0-11.25 2.1094-15.469 6.3281s-6.3281 9.8438-6.3281 15.469 2.1094 11.25 6.3281 15.469 9.8438 6.3281 15.469 6.3281c4.9219 0 10.547-2.1094 14.766-6.3281zm-21.094-74.531h6.3281c12.656 0 26.016 4.2188 37.266 12.656v0.70312h0.70312l0.70312 0.70312v0.70312h0.70312l0.70312 0.70312h0.70312v0.70312h0.70312v0.70312c9.8438 9.8438 15.469 22.5 17.578 35.156v14.062l-0.70312 0.70312v3.5156l-0.70312 0.70312v2.1094l-0.70312 0.70312v2.1094l-0.70312 0.70312v1.4062l-0.70312 0.70312v1.4062l-0.70312 0.70312v1.4062h-0.70312v0.70312l-0.70312 0.70312v1.4062h-0.70312v0.70312l-0.70312 0.70312v1.4062h-0.70312v0.70312l-0.70312 0.70312-0.70312 1.4062v0.70312h-0.70312v0.70312l-1.4062 1.4062v0.70312h-0.70312v0.70312l-0.70312 0.70312v0.70312h-0.70312v0.70312h-0.70312c21.797 29.531 45 49.219 68.203 58.359 13.359 5.625 27.422 7.7344 41.484 6.3281 14.062-2.1094 28.125-7.7344 42.188-16.875 35.156-23.203 69.609-70.312 98.438-141.28 7.0312-17.578 14.062-36.562 19.688-55.547-55.547-14.766-112.5-35.859-170.11-61.875-56.953 26.016-114.61 47.109-170.11 61.875 5.625 18.281 11.953 35.156 18.984 52.031zm-23.906-604.55-0.70312 0.70312v0.70312h-0.70312v0.70312h-0.70312l-0.70312 0.70312h-0.70312v0.70312h-0.70312v0.70312h-0.70312c-1.4062 0.70312-2.1094 1.4062-2.8125 2.1094h-0.70312v0.70312h-0.70312c-0.70312 0-0.70312 0.70312-1.4062 0.70312l-0.70312 0.70312h-1.4062v0.70312h-1.4062l-0.70312 0.70312h-0.70312v0.70312h-1.4062l-0.70312 0.70312h-0.70312l-0.70312 0.70312h-2.1094v0.70312h-2.1094l-0.70312 0.70312h-2.1094l-0.70312 0.70312h-3.5156c-0.70312 6.3281-1.4062 11.953-2.1094 18.281 26.016-17.578 52.734-33.75 79.453-49.922 27.422-15.469 55.547-30.234 82.969-44.297-45.703-18.984-90.703-35.156-134.95-46.406-1.4062 4.2188-2.8125 8.4375-3.5156 13.359h0.70312v0.70312h0.70312l0.70312 0.70312h0.70312v0.70312h0.70312l0.70312 0.70312h0.70312v0.70312h0.70312v0.70312h0.70312v0.70312h1.4062v0.70312h0.70312v0.70312h0.70312v0.70312h0.70312v0.70312h0.70312v0.70312h0.70312v0.70312c9.1406 8.4375 14.062 19.688 16.172 30.938v0.70312h0.70312v4.9219l0.70312 0.70312v8.4375l-0.70312 0.70312v4.9219l-0.70312 0.70312c-2.1094 11.25-7.0312 22.5-16.172 30.938v0.70312l-0.70312 0.70312h-0.70312v0.70312h-0.70312v0.70312zm-81.562-2.8125c-9.8438-9.8438-15.469-22.5-16.875-35.859v-11.25l0.70312-0.70312v-1.4062c1.4062-12.656 7.0312-24.609 16.875-34.453l1.4062-0.70312v-0.70312c1.4062-0.70312 2.1094-1.4062 2.8125-2.1094l1.4062-1.4062h0.70312l0.70312-0.70312v-0.70312h0.70312l1.4062-1.4062h0.70312l0.70312-0.70312h0.70312l0.70312-0.70312h0.70312c0.70312-0.70312 1.4062-0.70312 1.4062-1.4062h1.4062v-0.70312h1.4062v-0.70312h0.70312l1.4062-0.70312h0.70312l0.70312-0.70312h0.70312c0.70312 0 1.4062-0.70312 2.1094-0.70312h0.70312l0.70312-0.70312h2.1094v-0.70312h2.8125l0.70312-0.70312h3.5156l1.4062-0.70312h0.70312c0.70312-4.9219 2.1094-9.1406 3.5156-14.062-19.688-4.2188-38.672-7.7344-57.656-10.547-65.391-9.1406-118.12-5.625-156.05 7.7344-26.016 9.1406-45 23.906-56.25 42.188 0 0 0 0.70312-0.70312 0.70312-10.547 18.984-14.062 42.891-8.4375 71.016 7.0312 39.375 30.234 86.484 71.016 138.47 11.953 15.469 24.609 30.234 37.969 45 40.781-40.781 87.891-80.156 138.47-116.72 1.4062-17.578 3.5156-35.156 6.3281-52.031l-0.70312-0.70312h-0.70312v-0.70312h-1.4062v-0.70312h-0.70312l-0.70312-0.70312h-0.70312v-0.70312h-0.70312l-0.70312-0.70312h-0.70312v-0.70312h-0.70312v-0.70312h-0.70312l-0.70312-0.70312h-0.70312v-0.70312h-0.70312v-0.70312h-0.70312v-0.70312h-0.70312l-0.70312-0.70312v-0.70312h-0.70312l-0.70312-0.70312v-0.70312h-0.70312zm56.953-24.609v-0.70312h0.70312v-0.70312c4.2188-4.2188 6.3281-9.8438 6.3281-15.469s-2.1094-11.25-6.3281-15.469l-1.4062-1.4062h-0.70312v-0.70312h-0.70312v-0.70312h-1.4062v-0.70312h-0.70312l-0.70312-0.70312h-1.4062v-0.70312h-1.4062v-0.70312h-3.5156v-0.70312h-6.3281l-0.70312 0.70312h-2.8125v0.70312h-1.4062l-0.70312 0.70312h-1.4062v0.70312h-0.70312l-0.70312 0.70312h-0.70312v0.70312h-0.70312l-1.4062 1.4062h-0.70312v0.70312h-0.70312c-2.8125 3.5156-4.9219 7.7344-5.625 11.953v1.4062l-0.70312 0.70312v2.8125l0.70312 0.70312v0.70312c0 4.2188 2.1094 9.1406 5.625 12.656h0.70312v0.70312h0.70312v0.70312h0.70312v0.70312h0.70312l0.70312 0.70312h0.70312v0.70312h1.4062v0.70312h1.4062v0.70312h2.1094v0.70312h2.1094v0.70312h8.4375l0.70312-0.70312h2.1094v-0.70312h2.1094v-0.70312h1.4062v-0.70312h1.4062v-0.70312h0.70312v-0.70312h0.70312l0.70312-0.70312zm313.55-273.47h-0.70312v0.70312h-0.70312v0.70312h-0.70312v0.70312h-0.70312v1.4062h-0.70312v0.70312l-0.70312 0.70312v0.70312h-0.70312v1.4062l-0.70312 0.70312v1.4062l-0.70312 0.70312v2.8125h-0.70312v2.8125c0 5.625 2.1094 11.25 6.3281 15.469h0.70312c4.2188 4.2188 9.1406 6.3281 14.766 6.3281s11.25-2.1094 15.469-6.3281 6.3281-9.8438 6.3281-15.469-2.1094-11.25-6.3281-15.469-9.8438-6.3281-15.469-6.3281-10.547 2.1094-14.766 6.3281zm24.609 73.828c-2.8125 0.70312-6.3281 0.70312-9.8438 0.70312-14.766 0-30.234-5.625-41.484-16.875-11.953-11.953-17.578-26.719-17.578-42.188v-6.3281l0.70312-0.70312v-4.2188l0.70312-0.70312v-2.1094l0.70312-0.70312v-2.1094l0.70312-0.70312v-1.4062l0.70312-0.70312v-1.4062l0.70312-0.70312v-0.70312l0.70312-0.70312v-1.4062h0.70312v-1.4062h0.70312v-0.70312l0.70312-0.70312v-0.70312l0.70312-0.70312v-0.70312l0.70312-0.70312v-0.70312h0.70312v-1.4062h0.70312c-15.469-16.172-30.938-27.422-47.109-33.75-16.172-7.0312-31.641-8.4375-47.812-5.625-16.172 3.5156-32.344 11.953-48.516 25.312-30.938 26.016-60.469 69.609-85.781 132.14-7.7344 17.578-14.062 35.859-20.391 55.547 55.547 14.766 113.2 35.859 170.11 61.172 57.656-25.312 114.61-46.406 170.11-61.172-5.625-19.688-12.656-37.969-19.688-55.547-3.5156-8.4375-6.3281-15.469-9.1406-21.797-0.70312-1.4062-2.1094-3.5156-2.8125-5.625zm137.76 475.92h-0.70313v0.70312h-0.70312v0.70312h-0.70313l-1.4062 1.4062h-0.70312v0.70312h-0.70313l-0.70312 0.70312h-0.70313v0.70312h-0.70312l-0.70313 0.70312h-0.70312v0.70312h-0.70313l-0.70312 0.70312h-0.70313l-0.70312 0.70312h-0.70313v0.70312h-1.4062v0.70312h-1.4062l-0.70312 0.70312h-0.70313l-0.70312 0.70312h-1.4062l-0.70313 0.70312h-1.4062v0.70312h-1.4062c0 12.656-0.70312 24.609-1.4062 37.266 39.375-30.234 75.938-61.875 108.28-94.219-32.344-32.344-68.906-63.984-108.28-93.516 0.70313 11.953 1.4062 24.609 1.4062 37.266h1.4062l0.70313 0.70312h1.4062l0.70312 0.70312h0.70313l0.70312 0.70312h1.4062v0.70312h1.4062l0.70313 0.70312h0.70312l0.70313 0.70312h0.70312v0.70312h1.4062v0.70312h0.70313l0.70312 0.70312h0.70313v0.70312h1.4062v0.70312h0.70312v0.70312h0.70313l0.70312 0.70312h0.70313v0.70312h0.70312v0.70312h0.70313v0.70312h0.70312l1.4062 1.4062h0.70313v0.70312h0.70312v0.70312h0.70313v0.70312c11.953 11.25 17.578 26.719 17.578 41.484 0 15.469-5.625 30.938-17.578 42.188 0 0.70312-0.70313 0.70312-1.4062 1.4062h-0.70313v0.70312zm-39.375-66.797h-2.1094v0.70312h-3.5156v0.70312h-2.1094v0.70312h-1.4062l-1.4062 0.70312v0.70312h-1.4062v0.70312c-0.70312 0.70312-2.1094 1.4062-2.8125 2.1094-4.2188 4.2188-7.0312 9.8438-7.0312 15.469s2.8125 11.25 7.0312 15.469c0.70313 1.4062 1.4062 2.1094 2.8125 2.8125h0.70313v0.70312h0.70312l0.70313 0.70312h0.70312l0.70313 0.70312h1.4062v0.70312h2.1094v0.70312h4.9219c5.625 0 11.25-1.4062 14.766-5.625 0.70313 0 0.70313 0 0.70313-0.70312 4.2188-4.2188 6.3281-9.8438 6.3281-15.469s-2.1094-11.25-6.3281-15.469-9.8438-6.3281-15.469-6.3281zm-191.9-243.94c28.125 14.062 55.547 28.828 82.969 44.297 27.422 16.172 54.141 32.344 80.156 49.922-2.8125-22.5-6.3281-44.297-10.547-66.094-4.9219-26.016-10.547-50.625-16.875-74.531-44.297 11.953-90 27.422-135.66 46.406zm203.86 122.29c50.625 36.562 97.734 75.938 138.47 116.72 13.359-14.766 26.016-29.531 37.969-45 40.078-52.031 63.984-99.141 71.016-138.47 4.9219-28.125 2.1094-52.031-9.1406-71.016-10.547-18.984-30.234-33.75-56.953-42.891-37.969-13.359-90-16.875-155.34-7.7344-18.984 2.8125-37.969 6.3281-57.656 10.547 6.3281 24.609 11.953 50.625 16.875 77.344 6.3281 32.344 11.25 66.094 14.766 100.55zm-293.86 409.13c-27.422-13.359-55.547-28.125-82.969-44.297-26.719-15.469-53.438-32.344-79.453-49.219 6.3281 49.219 15.469 96.328 27.422 140.58 43.594-11.953 89.297-27.422 134.95-47.109zm-203.16-122.29c-50.625-36.562-97.734-75.938-138.47-116.02-13.359 14.766-26.016 29.531-37.969 44.297-40.781 52.734-63.984 99.141-71.016 138.47-4.9219 28.125-2.1094 51.328 8.4375 70.312v0.70312c11.25 18.984 30.234 33.75 56.953 43.594 37.969 13.359 90.703 16.875 156.05 7.7344 18.984-2.8125 37.969-6.3281 57.656-10.547-14.766-55.547-25.312-116.02-31.641-178.55zm-112.5-143.39c32.344 32.344 68.906 63.984 108.28 94.219-4.2188-61.875-4.2188-125.81 0-187.69-39.375 29.531-75.938 61.172-108.28 93.516zm148.31 123c33.047 23.203 67.5 45.703 103.36 66.094 35.859 21.094 72.422 40.078 108.98 56.953 36.562-16.875 73.125-35.859 108.28-56.25 0.70312 0 0.70312 0 1.4062-0.70312 35.156-20.391 70.312-42.891 103.36-66.094 2.1094-21.797 3.5156-44.297 4.2188-66.797l-0.70312-0.70312h-1.4062v-0.70312h-1.4062l-0.70312-0.70312h-1.4062v-0.70312h-1.4062v-0.70312h-1.4062v-0.70312h-0.70312v-0.70312h-1.4062v-0.70312h-1.4062l-0.70312-1.4062h-1.4062c-2.8125-2.1094-5.625-4.2188-7.7344-7.0312-11.953-11.25-17.578-26.719-17.578-42.188 0-14.766 5.625-30.234 17.578-41.484v-0.70312l8.4375-6.3281v-0.70312h1.4062v-0.70312h0.70312v-0.70312h1.4062v-0.70312h1.4062v-0.70312h1.4062v-0.70312h0.70312l0.70312-0.70312h0.70312l0.70312-0.70312h1.4062v-0.70312h1.4062l0.70312-0.70312h0.70312c-0.70312-22.5-2.1094-45-4.2188-67.5-33.047-23.203-68.203-45-103.36-66.094-35.859-20.391-72.422-39.375-109.69-56.25-36.562 16.875-73.125 35.859-108.98 56.25-35.859 21.094-70.312 42.891-104.06 66.094-7.0312 80.156-7.0312 163.08 0 243.24l0.70312 2.8125zm257.29 142.69c45.703 19.688 91.406 35.156 135.66 47.109 6.3281-23.906 11.953-49.219 16.875-74.531 4.2188-21.797 7.7344-43.594 10.547-66.094-26.016 16.875-52.734 33.75-80.156 49.219 0 0.70312-0.70312 0.70312-0.70312 0.70312-27.422 15.469-54.141 30.234-82.266 43.594z"/>
</svg>
